<?xml version="1.0" encoding="utf-8"?><svg viewBox="0 0 80 55" xmlns="http://www.w3.org/2000/svg" xmlns:xlink="http://www.w3.org/1999/xlink"><style>:root>svg{display:none}:root>svg:target{display:block}</style><svg fill="none" viewBox="0 0 21 25" id="catalog" xmlns="http://www.w3.org/2000/svg"><path d="M6.648 9.291v-6.27c0-.13.05-.254.142-.344 1.387-1.334 4.608-2.988 7.623-.003a.49.49 0 01.143.346v6.271" stroke="#7E839C" stroke-width="1.5"/><path d="M18.133 5.173H3.07a1 1 0 00-.998.94L1.063 22.94A1 1 0 002.063 24h17.08a1 1 0 00.998-1.06L19.13 6.113a1 1 0 00-.997-.94z" stroke="#7E839C" stroke-width="1.5"/></svg><svg fill="none" viewBox="0 0 22 24" id="gift" xmlns="http://www.w3.org/2000/svg"><path d="M10.836 5c.185-.742.07-1.615-.385-2.402C9.623 1.163 7.981.56 6.786 1.25c-1.044.603-1.403 2.299-.927 3.674M11.164 5c-.185-.742-.07-1.615.385-2.402.828-1.435 2.47-2.038 3.665-1.348 1.044.603 1.403 2.299.927 3.674M11 5v17.5M1.5 12h19" stroke="#7E839C" stroke-width="1.5"/><path d="M20 5H2a1 1 0 00-1 1v5.5a.5.5 0 00.5.5.5.5 0 01.5.5V22a1 1 0 001 1h16a1 1 0 001-1v-9.5a.5.5 0 01.5-.5.5.5 0 00.5-.5V6a1 1 0 00-1-1z" stroke="#7E839C" stroke-width="1.5"/></svg><svg viewBox="0 0 22 23" id="home" xmlns="http://www.w3.org/2000/svg"><path fill-rule="evenodd" clip-rule="evenodd" d="M10.374 1.588a.25.25 0 01.381 0l8.812 10.358a.25.25 0 01-.19.412h-.63c-.69 0-1.25.56-1.25 1.25v7.549a.25.25 0 01-.25.25h-3.582V16.62a2 2 0 00-2-2H9.47a2 2 0 00-2 2v4.787H3.882a.25.25 0 01-.25-.25v-7.549c0-.69-.56-1.25-1.25-1.25h-.629a.25.25 0 01-.19-.412l8.811-10.358zm1.524-.972a1.75 1.75 0 00-2.666 0L.42 10.974c-.966 1.137-.159 2.884 1.333 2.884h.38v7.299c0 .966.783 1.75 1.75 1.75h13.364a1.75 1.75 0 001.75-1.75v-7.299h.38c1.491 0 2.3-1.747 1.332-2.883L11.898.616zM8.97 16.621a.5.5 0 01.5-.5h2.195a.5.5 0 01.5.5v4.75H8.97v-4.75z"/></svg><svg viewBox="0 0 80 55" id="logo" xmlns="http://www.w3.org/2000/svg"><path d="M18.84 31.996l.017-.675.11.109h3.679v10.977h2.777v-13.72h-9.586l-.042 3.478c-.064 5.984-.56 7.8-2.038 7.8l-.518.006v2.38c.253.084 1.039.051 1.481.051 2.635-.002 4.12-2.558 4.12-10.406zM32.064 5.691a5.335 5.335 0 003.776-1.574A5.386 5.386 0 0037.406.324V0H34.21v.324a2.166 2.166 0 01-.61 1.558 2.147 2.147 0 01-1.537.65 2.139 2.139 0 01-1.535-.65 2.159 2.159 0 01-.611-1.558V0h-3.198v.324a5.387 5.387 0 001.568 3.795 5.335 5.335 0 003.778 1.572zM29.291.648a2.81 2.81 0 00.917 1.77 2.785 2.785 0 003.712 0 2.81 2.81 0 00.918-1.77h1.912a4.728 4.728 0 01-1.478 3.13 4.685 4.685 0 01-6.415 0 4.728 4.728 0 01-1.479-3.13h1.913zM43.491 17.782h.26c.305 0 .594-.014.867-.04.314-.038.625-.096.931-.176l3.48 5.72h3.13l-4.525-7.432c.294-.343.57-.7.829-1.07.286-.408.595-.884.927-1.429l2.313-3.785h-2.929l-2.313 3.808c-.412.681-.797 1.132-1.155 1.352-.359.22-.89.33-1.596.33h-.219V9.564h-2.73v13.721h2.73v-5.503zM57.388 23.255l5.432-8.615v8.601h2.73V9.521h-2.73v.003l-.005-.004-5.438 8.626V9.52h-2.731v13.721h2.719l.023.014zM29.353 23.304l5.433-8.614v8.6h2.73V9.57h-2.73v.002l-.005-.003-5.438 8.626V9.569h-2.731V23.29h2.719l.022.014zM77.269 9.55v5.502h-5.444V9.55h-2.731v13.72h2.73v-5.474h5.445v5.475H80V9.55h-2.731zM11 23.304h2.698l1.097-2.744h6.04l1.097 2.744h2.699L19.168 9.612l.012-.031h-2.736l.013.03-5.458 13.693zm8.734-5.488H15.89l1.922-4.81 1.92 4.81zM2.825 19.168H6.25a4.77 4.77 0 003.38-1.407 4.815 4.815 0 000-6.793 4.77 4.77 0 00-3.38-1.407H2.824V9.55H.095v13.722h2.73v-4.103zm0-6.798H6.25c1.17 0 2.005.785 1.971 1.995-.036 1.324-1.007 1.994-2.025 1.994H2.824V12.37zM50.104 35.263a3.913 3.913 0 001.48-1.221 3.15 3.15 0 00.58-1.86 3.282 3.282 0 00-1.35-2.725c-.891-.678-2.085-1.023-3.553-1.023a7.065 7.065 0 00-2.724.554c-.89.372-1.709.9-2.415 1.56l-.05.048 1.482 2.023.064-.06a6.142 6.142 0 011.705-1.122c.564-.26 1.175-.4 1.796-.412.668 0 1.211.143 1.613.425a1.28 1.28 0 01.592 1.113c0 .466-.218.827-.667 1.1-.449.272-1.079.417-1.856.417h-1.938v2.59h2.142c.881 0 1.572.15 2.053.447a1.371 1.371 0 01.711 1.249c0 .521-.228.925-.699 1.23-.47.306-1.127.467-1.942.467a4.848 4.848 0 01-1.948-.44 5.992 5.992 0 01-1.793-1.22l-.063-.06-1.54 1.998.05.049a7.84 7.84 0 002.506 1.666 7.581 7.581 0 002.928.584c1.584 0 2.886-.374 3.868-1.112.981-.74 1.49-1.73 1.49-2.935a3.26 3.26 0 00-.707-2.063c-.432-.546-1.041-.971-1.815-1.267zM2.825 31.427h5.444v10.975h2.73v-13.72H.095v13.72h2.73V31.427zM35.681 28.677h-2.737l.013.03L27.5 42.403h2.699l1.097-2.744h6.04l1.096 2.744h2.699l-5.463-13.69.013-.037zm.558 8.238H32.39l1.922-4.81 1.926 4.81zM61.464 28.677H58.73l.013.03-5.459 13.696h2.7l1.097-2.744h6.04l1.097 2.744h2.693l-5.458-13.69.01-.037zm.553 8.235h-3.84l1.921-4.81 1.919 4.81zM0 49.726h1.253v3.618h.655v-3.618H3.16v-.593H0v.593zM6.545 49.073a1.987 1.987 0 00-1.49.62 2.295 2.295 0 000 3.095 1.994 1.994 0 001.49.62 1.987 1.987 0 001.49-.62 2.296 2.296 0 000-3.094 1.996 1.996 0 00-1.49-.621zm1.413 2.169c.014.41-.13.809-.404 1.114A1.378 1.378 0 016 52.68a1.378 1.378 0 01-.458-.324 1.731 1.731 0 010-2.227 1.372 1.372 0 011.556-.326c.173.076.33.187.457.326a1.6 1.6 0 01.405 1.113zM12.738 49.483c-.272-.238-.656-.35-1.14-.35h-1.212v4.21h.643v-1.558h.569c.473 0 .852-.12 1.13-.357a1.335 1.335 0 00.317-1.5 1.333 1.333 0 00-.307-.445zm-.247.976a.677.677 0 01-.222.541.985.985 0 01-.652.192h-.593v-1.466h.593a.976.976 0 01.648.194.662.662 0 01.226.54zM14.852 53.344h.643v-3.618h1.78v-.593h-2.423v4.211zM20.66 49.073a1.986 1.986 0 00-1.49.62 2.296 2.296 0 000 3.095 2.103 2.103 0 002.298.46c.256-.107.488-.263.684-.46a2.297 2.297 0 000-3.094 1.997 1.997 0 00-1.491-.621zm1.414 2.169c.014.41-.13.808-.402 1.114a1.376 1.376 0 01-1.555.324 1.377 1.377 0 01-.458-.324 1.731 1.731 0 010-2.227 1.372 1.372 0 011.007-.442 1.367 1.367 0 011.006.442 1.6 1.6 0 01.402 1.113zM26.616 51.14a1.14 1.14 0 00.385-.343.945.945 0 00.164-.543.991.991 0 00-.389-.826c-.254-.195-.607-.295-1.051-.295H24.5v4.211h1.255c.482 0 .871-.108 1.155-.32a1.043 1.043 0 00.434-.88.983.983 0 00-.213-.621 1.317 1.317 0 00-.516-.382zm-.302-.42a.892.892 0 01-.56.159h-.61v-1.166h.61c.199-.011.396.045.56.16a.547.547 0 01.147.657.547.547 0 01-.146.19zm.38 1.395a.55.55 0 01-.237.476c-.203.127-.44.187-.679.173h-.64v-1.31h.64c.239-.014.476.047.679.176a.556.556 0 01.238.487l-.002-.002zM33.283 49.122h-.655v4.21h.655v-4.21zM31.664 51.178c-.276-.223-.651-.335-1.114-.335h-.773v-1.71h-.644v4.211h1.421c.463 0 .839-.111 1.115-.332a1.204 1.204 0 00.42-.917 1.21 1.21 0 00-.42-.917h-.005zm-.237.918a.576.576 0 01-.223.484 1.022 1.022 0 01-.639.178h-.79v-1.322h.79c.226-.014.451.048.64.175a.57.57 0 01.225.486h-.003zM35.926 52.33v-3.197h-.62v4.211h.619l2.031-3.189v3.19h.62v-4.212h-.613l-2.037 3.196zM36.02 47.863v.176a.762.762 0 00.28.605c.196.162.444.246.698.238.254.011.503-.07.702-.227a.743.743 0 00.276-.595v-.188h-.535v.17a.358.358 0 01-.11.283.486.486 0 01-.333.1.472.472 0 01-.33-.103.373.373 0 01-.112-.293v-.157l-.536-.01zM47.721 49.133h-.65v3.626h-1.963v-3.626h-.655v4.211h3.219v1.025h.631v-1.61h-.581v-3.626zM49.81 53.344h2.574v-.592h-1.917v-1.28h1.78v-.592h-1.78v-1.154h1.917v-.593H49.81v4.211zM56.865 50.874h-2.047v-1.74h-.656v4.21h.656v-1.879h2.047v1.88h.655v-4.212h-.655v1.741zM59.088 49.726h1.253v3.618h.655v-3.618h1.253v-.593h-3.16v.593zM66.169 49.483c-.272-.238-.656-.35-1.14-.35h-1.212v4.21h.643v-1.558h.569c.473 0 .852-.12 1.13-.357a1.338 1.338 0 00.01-1.945zm-.474 1.518a.985.985 0 01-.652.191h-.593v-1.466h.593a.976.976 0 01.649.194.763.763 0 01.165.834.764.764 0 01-.165.248l.003-.002z"/></svg><svg fill="none" viewBox="0 0 24 24" id="qr" xmlns="http://www.w3.org/2000/svg"><path fill-rule="evenodd" clip-rule="evenodd" d="M1.75 1.5a.25.25 0 00-.25.25v3.694a.75.75 0 01-1.5 0V1.75C0 .784.784 0 1.75 0h3.694a.75.75 0 010 1.5H1.75zm4.255 7.138V6.005h2.633v2.633H6.005zm-1.5-3.133a1 1 0 011-1h3.633a1 1 0 011 1v3.633a1 1 0 01-1 1H5.505a1 1 0 01-1-1V5.505zm9.95 3.133V6.005h2.632v2.633h-2.633zm-1.5-3.133a1 1 0 011-1h3.632a1 1 0 011 1v3.633a1 1 0 01-1 1h-3.633a1 1 0 01-1-1V5.505zm1.5 8.95v2.632h2.632v-2.633h-2.633zm-.5-1.5a1 1 0 00-1 1v3.632a1 1 0 001 1h3.632a1 1 0 001-1v-3.633a1 1 0 00-1-1h-3.633zm-7.95 4.132v-2.633h2.633v2.633H6.005zm-1.5-3.133a1 1 0 011-1h3.633a1 1 0 011 1v3.633a1 1 0 01-1 1H5.505a1 1 0 01-1-1v-3.633zm16.837 7.638a.25.25 0 00.25-.25v-3.694a.75.75 0 111.5 0v3.694a1.75 1.75 0 01-1.75 1.75h-3.694a.75.75 0 110-1.5h3.694zM1.5 21.342c0 .138.112.25.25.25h3.694a.75.75 0 010 1.5H1.75A1.75 1.75 0 010 21.342v-3.694a.75.75 0 111.5 0v3.694zM21.592 1.75a.25.25 0 00-.25-.25h-3.694a.75.75 0 110-1.5h3.694c.966 0 1.75.784 1.75 1.75v3.694a.75.75 0 01-1.5 0V1.75z" fill="#fff"/></svg><svg viewBox="0 0 24 23" id="star" xmlns="http://www.w3.org/2000/svg"><g clip-path="url(#fclip0_7_360)"><path fill-rule="evenodd" clip-rule="evenodd" d="M.013 11.482C.013 5.134 5.193.004 11.565.004c6.371 0 11.552 5.13 11.552 11.478s-5.18 11.477-11.552 11.477C5.194 22.96.013 17.83.013 11.482zm11.552-8.91c-4.971 0-8.985 3.997-8.985 8.91 0 4.912 4.014 8.91 8.985 8.91 4.971 0 8.985-3.998 8.985-8.91 0-4.913-4.014-8.91-8.985-8.91z"/><path d="M11.566 5.54l1.838 3.435 3.859.673-2.723 2.797.547 3.852-3.52-1.707-3.522 1.707.547-3.852L5.87 9.648l3.86-.673 1.837-3.435z"/></g><defs><clipPath id="fclip0_7_360"><path d="M0 0h23.134v23H0z"/></clipPath></defs></svg><svg fill="none" viewBox="0 0 25 25" id="user" xmlns="http://www.w3.org/2000/svg"><path d="M23.57 24v-2.555c0-2.823-2.526-5.112-5.642-5.112H6.643C3.526 16.333 1 18.622 1 21.445V24" stroke="#7E839C" stroke-width="1.5" stroke-linecap="round" stroke-linejoin="round"/><path clip-rule="evenodd" d="M12.285 11.222c3.117 0 5.643-2.288 5.643-5.11C17.928 3.287 15.402 1 12.285 1 9.17 1 6.643 3.288 6.643 6.111s2.526 5.111 5.642 5.111z" stroke="#7E839C" stroke-width="1.5" stroke-linecap="round" stroke-linejoin="round"/></svg></svg>